<?xml version="1.0" encoding="UTF-8"?>
<svg xmlns="http://www.w3.org/2000/svg" id="Layer_1" data-name="Layer 1" viewBox="0 0 24 24">
  <path d="M19.478,9.727c-.057-.158-.19-.277-.354-.316-.134-.032-3.335-.783-7.123-.783-1.817,0-3.502,.173-4.777,.357-.15-.583-.226-1.273-.226-2.056,0-4.09,2-4.929,5.003-4.929,2.803,0,4.227,.839,4.76,2.807,.072,.267,.343,.427,.613,.352,.267-.072,.424-.347,.352-.613-.861-3.177-3.68-3.545-5.725-3.545-2.795,0-6.003,.674-6.003,5.929,0,.84,.077,1.569,.234,2.214-.805,.14-1.303,.256-1.355,.268-.165,.039-.299,.159-.355,.318-.038,.107-.94,2.667-.94,6.085,0,3.448,.902,5.981,.941,6.087,.057,.158,.19,.277,.354,.316,.134,.032,3.335,.783,7.123,.783s6.988-.75,7.123-.783c.165-.039,.299-.159,.355-.318,.038-.107,.94-2.667,.94-6.085,0-3.448-.902-5.981-.941-6.087Zm-.857,11.577c-.849,.179-3.576,.696-6.62,.696s-5.774-.518-6.621-.696c-.221-.712-.798-2.835-.798-5.49,0-2.634,.578-4.772,.799-5.49,.849-.179,3.576-.696,6.62-.696s5.774,.518,6.621,.696c.221,.712,.798,2.835,.798,5.49,0,2.634-.578,4.772-.799,5.49Z"/>
  <path d="M12,14.543c-.276,0-.5,.224-.5,.5v1.542c0,.276,.224,.5,.5,.5s.5-.224,.5-.5v-1.542c0-.276-.224-.5-.5-.5Z"/>
</svg>
